<svg width="36" height="37" viewBox="0 0 36 37" fill="none" xmlns="http://www.w3.org/2000/svg">
<mask id="mask0_75_551" style="mask-type:luminance" maskUnits="userSpaceOnUse" x="0" y="0" width="36" height="37">
<path d="M35.2341 15.5232H18.4104V22.5036H28.0943C27.1915 26.9381 23.4165 29.4839 18.4104 29.4839C12.5016 29.4839 7.74172 24.7208 7.74172 18.8081C7.74172 12.8953 12.5016 8.13219 18.4104 8.13219C20.9545 8.13219 23.2523 9.03556 25.0578 10.5138L30.3101 5.25792C27.1095 2.46577 23.0061 0.741211 18.4104 0.741211C8.39826 0.741211 0.355713 8.78917 0.355713 18.8081C0.355713 28.827 8.39826 36.8749 18.4104 36.8749C27.4378 36.8749 35.6444 30.3051 35.6444 18.8081C35.6444 17.7405 35.4803 16.5908 35.2341 15.5232Z" fill="white"/>
</mask>
<g mask="url(#mask0_75_551)">
<path d="M-1.28564 29.4839V8.13219L12.6657 18.8081L-1.28564 29.4839Z" fill="#FBBC05"/>
</g>
<mask id="mask1_75_551" style="mask-type:luminance" maskUnits="userSpaceOnUse" x="0" y="0" width="36" height="37">
<path d="M35.2341 15.5232H18.4104V22.5036H28.0943C27.1915 26.9381 23.4165 29.4839 18.4104 29.4839C12.5016 29.4839 7.74172 24.7208 7.74172 18.8081C7.74172 12.8953 12.5016 8.13219 18.4104 8.13219C20.9545 8.13219 23.2523 9.03556 25.0578 10.5138L30.3101 5.25792C27.1095 2.46577 23.0061 0.741211 18.4104 0.741211C8.39826 0.741211 0.355713 8.78917 0.355713 18.8081C0.355713 28.827 8.39826 36.8749 18.4104 36.8749C27.4378 36.8749 35.6444 30.3051 35.6444 18.8081C35.6444 17.7405 35.4803 16.5908 35.2341 15.5232Z" fill="white"/>
</mask>
<g mask="url(#mask1_75_551)">
<path d="M-1.28564 8.13218L12.6657 18.808L18.4104 13.7986L38.1064 10.5958V-0.901245H-1.28564V8.13218Z" fill="#EA4335"/>
</g>
<mask id="mask2_75_551" style="mask-type:luminance" maskUnits="userSpaceOnUse" x="0" y="0" width="36" height="37">
<path d="M35.2341 15.5232H18.4104V22.5036H28.0943C27.1915 26.9381 23.4165 29.4839 18.4104 29.4839C12.5016 29.4839 7.74172 24.7208 7.74172 18.8081C7.74172 12.8953 12.5016 8.13219 18.4104 8.13219C20.9545 8.13219 23.2523 9.03556 25.0578 10.5138L30.3101 5.25792C27.1095 2.46577 23.0061 0.741211 18.4104 0.741211C8.39826 0.741211 0.355713 8.78917 0.355713 18.8081C0.355713 28.827 8.39826 36.8749 18.4104 36.8749C27.4378 36.8749 35.6444 30.3051 35.6444 18.8081C35.6444 17.7405 35.4803 16.5908 35.2341 15.5232Z" fill="white"/>
</mask>
<g mask="url(#mask2_75_551)">
<path d="M-1.28564 29.4839L23.3344 10.5958L29.8177 11.4171L38.1064 -0.901245V38.5173H-1.28564V29.4839Z" fill="#34A853"/>
</g>
<mask id="mask3_75_551" style="mask-type:luminance" maskUnits="userSpaceOnUse" x="0" y="0" width="36" height="37">
<path d="M35.2341 15.5232H18.4104V22.5036H28.0943C27.1915 26.9381 23.4165 29.4839 18.4104 29.4839C12.5016 29.4839 7.74172 24.7208 7.74172 18.8081C7.74172 12.8953 12.5016 8.13219 18.4104 8.13219C20.9545 8.13219 23.2523 9.03556 25.0578 10.5138L30.3101 5.25792C27.1095 2.46577 23.0061 0.741211 18.4104 0.741211C8.39826 0.741211 0.355713 8.78917 0.355713 18.8081C0.355713 28.827 8.39826 36.8749 18.4104 36.8749C27.4378 36.8749 35.6444 30.3051 35.6444 18.8081C35.6444 17.7405 35.4803 16.5908 35.2341 15.5232Z" fill="white"/>
</mask>
<g mask="url(#mask3_75_551)">
<path d="M38.1064 38.5173L12.6657 18.8081L9.38306 16.3444L38.1064 8.13219V38.5173Z" fill="#4285F4"/>
</g>
</svg>
