<svg width="456" height="105" viewBox="0 0 456 105" fill="none" xmlns="http://www.w3.org/2000/svg">
<line x1="261" y1="37" x2="261" y2="71" stroke="#B2B2B2" stroke-width="6"/>
<circle cx="261.5" cy="27.5" r="12.5" fill="#FF0000"/>
<path d="M292.65 71.49C289.197 71.49 286.07 70.65 283.27 68.97C280.47 67.29 278.23 65.05 276.55 62.25C274.917 59.4033 274.1 56.23 274.1 52.73C274.1 49.23 274.917 46.08 276.55 43.28C278.23 40.4333 280.493 38.1933 283.34 36.56C286.187 34.88 289.383 34.04 292.93 34.04C294.75 34.04 296.5 34.2967 298.18 34.81C299.86 35.2767 301.423 35.9767 302.87 36.91V22L312.46 20.39V71H303.01V67.99C300.023 70.3233 296.57 71.49 292.65 71.49ZM294.19 63.3C295.963 63.3 297.573 63.02 299.02 62.46C300.513 61.8533 301.797 60.9667 302.87 59.8V45.59C301.797 44.5167 300.513 43.6767 299.02 43.07C297.527 42.4633 295.917 42.16 294.19 42.16C292.183 42.16 290.363 42.6267 288.73 43.56C287.143 44.4467 285.883 45.7067 284.95 47.34C284.017 48.9267 283.55 50.7233 283.55 52.73C283.55 54.7367 284.017 56.5333 284.95 58.12C285.883 59.7067 287.143 60.9667 288.73 61.9C290.363 62.8333 292.183 63.3 294.19 63.3ZM326.87 71L316.86 34.53H325.96L331.98 58.05L339.26 34.53H347.31L354.52 58.12L360.54 34.53H369.5L359.42 71H350.25L343.18 47.69L336.11 71H326.87ZM385.017 71.63C382.404 71.63 380.094 71.1633 378.087 70.23C376.081 69.25 374.517 67.92 373.397 66.24C372.277 64.56 371.717 62.6233 371.717 60.43C371.717 56.93 373.024 54.2233 375.637 52.31C378.297 50.35 381.937 49.37 386.557 49.37C389.731 49.37 392.717 49.86 395.517 50.84V48.18C395.517 46.08 394.864 44.4933 393.557 43.42C392.251 42.3467 390.337 41.81 387.817 41.81C386.277 41.81 384.621 42.0667 382.847 42.58C381.074 43.0467 379.021 43.7933 376.687 44.82L373.187 37.75C376.081 36.4433 378.834 35.4633 381.447 34.81C384.107 34.1567 386.767 33.83 389.427 33.83C394.327 33.83 398.131 35.02 400.837 37.4C403.591 39.7333 404.967 43.0467 404.967 47.34V71H395.517V68.41C394.024 69.53 392.414 70.3467 390.687 70.86C388.961 71.3733 387.071 71.63 385.017 71.63ZM380.817 60.22C380.817 61.62 381.424 62.74 382.637 63.58C383.851 64.3733 385.461 64.77 387.467 64.77C389.054 64.77 390.524 64.5833 391.877 64.21C393.231 63.79 394.444 63.1833 395.517 62.39V57.07C394.351 56.6033 393.137 56.2533 391.877 56.02C390.617 55.7867 389.264 55.67 387.817 55.67C385.624 55.67 383.897 56.09 382.637 56.93C381.424 57.7233 380.817 58.82 380.817 60.22ZM415.112 86.05C414.272 86.05 413.455 86.0033 412.662 85.91C411.915 85.8633 411.285 85.7933 410.772 85.7V77.44C411.705 77.6267 412.825 77.72 414.132 77.72C417.632 77.72 420.058 76.0633 421.412 72.75L421.972 71.35L407.762 34.53H418.332L427.432 59.38L437.722 34.53H448.082L431.282 73.94C430.022 76.88 428.645 79.2367 427.152 81.01C425.658 82.7833 423.932 84.0667 421.972 84.86C420.058 85.6533 417.772 86.05 415.112 86.05Z" fill="#5498FF"/>
<path d="M11 62.5L17.5 58L23.5 71H9H0L11 62.5Z" fill="#5498FF"/>
<path d="M55 77L411 77.5L416 86.2308H394.041L61.1484 97L55 77Z" fill="#5498FF"/>
<path d="M43.4658 77.3811L51.4618 77.127L56.095 96.9899L48.1149 97.7437L43.4658 77.3811Z" fill="#FF0000"/>
<path d="M32.9717 77.7146L40.4679 77.4764L45.117 97.839L37.6525 99.0767L32.9717 77.7146Z" fill="#FDBF49"/>
<path d="M21.4775 78.0798L29.4735 77.8258L34.6541 99.172L26.6899 100.426L21.4775 78.0798Z" fill="#2CCE59"/>
<path d="M8.04764 80.5075L18.4947 78.6748L23.6912 100.521L12.3081 104.384L8.04764 80.5075Z" fill="#07BEF9"/>
<path d="M17.78 71V34.53H27.37V37.33C29.9833 34.9967 33.1567 33.83 36.89 33.83C39.27 33.83 41.3933 34.32 43.26 35.3C45.1267 36.2333 46.6667 37.5633 47.88 39.29C49.3733 37.5167 51.1233 36.1633 53.13 35.23C55.1833 34.2967 57.4467 33.83 59.92 33.83C62.6733 33.83 65.0767 34.46 67.13 35.72C69.23 36.9333 70.8633 38.6367 72.03 40.83C73.2433 42.9767 73.85 45.4967 73.85 48.39V71H64.33V49.79C64.33 47.41 63.7 45.5433 62.44 44.19C61.18 42.79 59.5 42.09 57.4 42.09C55.9533 42.09 54.6233 42.3933 53.41 43C52.2433 43.6067 51.24 44.5167 50.4 45.73C50.4467 46.15 50.4933 46.57 50.54 46.99C50.5867 47.41 50.61 47.8767 50.61 48.39V71H41.02V49.79C41.02 47.41 40.39 45.5433 39.13 44.19C37.9167 42.79 36.26 42.09 34.16 42.09C32.7133 42.09 31.4067 42.37 30.24 42.93C29.12 43.49 28.1633 44.33 27.37 45.45V71H17.78ZM98.9991 71.7C95.3591 71.7 92.0458 70.86 89.0591 69.18C86.1191 67.5 83.7858 65.2367 82.0591 62.39C80.3325 59.5433 79.4691 56.3467 79.4691 52.8C79.4691 49.2533 80.2858 46.0567 81.9191 43.21C83.5991 40.3633 85.8625 38.1 88.7091 36.42C91.5558 34.74 94.7291 33.9 98.2291 33.9C101.729 33.9 104.832 34.7633 107.539 36.49C110.246 38.2167 112.369 40.55 113.909 43.49C115.496 46.43 116.289 49.7667 116.289 53.5V56.02H89.2691C89.6891 57.4667 90.3658 58.7733 91.2991 59.94C92.2791 61.1067 93.4691 62.0167 94.8691 62.67C96.3158 63.3233 97.8558 63.65 99.4891 63.65C101.122 63.65 102.616 63.3933 103.969 62.88C105.369 62.3667 106.559 61.6433 107.539 60.71L113.839 66.45C111.599 68.27 109.289 69.6 106.909 70.44C104.576 71.28 101.939 71.7 98.9991 71.7ZM89.1291 49.16H106.839C106.512 47.7133 105.906 46.4533 105.019 45.38C104.179 44.26 103.152 43.3967 101.939 42.79C100.772 42.1367 99.4658 41.81 98.0191 41.81C96.5258 41.81 95.1725 42.1133 93.9591 42.72C92.7458 43.3267 91.7191 44.19 90.8791 45.31C90.0858 46.3833 89.5025 47.6667 89.1291 49.16ZM140.288 71.7C136.648 71.7 133.335 70.86 130.348 69.18C127.408 67.5 125.075 65.2367 123.348 62.39C121.622 59.5433 120.758 56.3467 120.758 52.8C120.758 49.2533 121.575 46.0567 123.208 43.21C124.888 40.3633 127.152 38.1 129.998 36.42C132.845 34.74 136.018 33.9 139.518 33.9C143.018 33.9 146.122 34.7633 148.828 36.49C151.535 38.2167 153.658 40.55 155.198 43.49C156.785 46.43 157.578 49.7667 157.578 53.5V56.02H130.558C130.978 57.4667 131.655 58.7733 132.588 59.94C133.568 61.1067 134.758 62.0167 136.158 62.67C137.605 63.3233 139.145 63.65 140.778 63.65C142.412 63.65 143.905 63.3933 145.258 62.88C146.658 62.3667 147.848 61.6433 148.828 60.71L155.128 66.45C152.888 68.27 150.578 69.6 148.198 70.44C145.865 71.28 143.228 71.7 140.288 71.7ZM130.418 49.16H148.128C147.802 47.7133 147.195 46.4533 146.308 45.38C145.468 44.26 144.442 43.3967 143.228 42.79C142.062 42.1367 140.755 41.81 139.308 41.81C137.815 41.81 136.462 42.1133 135.248 42.72C134.035 43.3267 133.008 44.19 132.168 45.31C131.375 46.3833 130.792 47.6667 130.418 49.16ZM179.718 71.56C175.658 71.56 172.578 70.65 170.478 68.83C168.425 66.9633 167.398 64.2567 167.398 60.71V42.51H159.908V34.53H167.398V25.22L176.988 23.05V34.53H187.418V42.51H176.988V58.75C176.988 60.43 177.362 61.6433 178.108 62.39C178.855 63.09 180.162 63.44 182.028 63.44C182.962 63.44 183.802 63.3933 184.548 63.3C185.342 63.16 186.205 62.9267 187.138 62.6V70.51C186.158 70.8367 184.922 71.0933 183.428 71.28C181.982 71.4667 180.745 71.56 179.718 71.56ZM192.096 71V34.53H201.686V37.33C204.3 34.9967 207.473 33.83 211.206 33.83C213.586 33.83 215.71 34.32 217.576 35.3C219.443 36.2333 220.983 37.5633 222.196 39.29C223.69 37.5167 225.44 36.1633 227.446 35.23C229.5 34.2967 231.763 33.83 234.236 33.83C236.99 33.83 239.393 34.46 241.446 35.72C243.546 36.9333 245.18 38.6367 246.346 40.83C247.56 42.9767 248.166 45.4967 248.166 48.39V71H238.646V49.79C238.646 47.41 238.016 45.5433 236.756 44.19C235.496 42.79 233.816 42.09 231.716 42.09C230.27 42.09 228.94 42.3933 227.726 43C226.56 43.6067 225.556 44.5167 224.716 45.73C224.763 46.15 224.81 46.57 224.856 46.99C224.903 47.41 224.926 47.8767 224.926 48.39V71H215.336V49.79C215.336 47.41 214.706 45.5433 213.446 44.19C212.233 42.79 210.576 42.09 208.476 42.09C207.03 42.09 205.723 42.37 204.556 42.93C203.436 43.49 202.48 44.33 201.686 45.45V71H192.096Z" fill="#5498FF"/>
<path d="M186 62.5L192.5 58L198.5 71H184L186 62.5Z" fill="#5498FF"/>
</svg>
