    <svg
      width="50"
      height="40"
      viewBox="0 0 26 35"
      fill="none"
      xmlns="http://www.w3.org/2000/svg"
    >
      <path
        d="M12.8926 34.6263C12.4953 34.6263 12.1342 34.516 11.8092 34.2953C11.4841 34.0747 11.2494 33.7776 11.1049 33.4042C10.2743 30.994 9.22703 28.9741 7.96305 27.3446C6.69908 25.7151 5.47121 24.1536 4.27946 22.6599C3.12383 21.1662 2.12168 19.6216 1.27301 18.0261C0.424335 16.4305 0 14.4616 0 12.1192C0 8.72448 1.24592 5.85592 3.73776 3.51355C6.2296 1.17118 9.2812 0 12.8926 0C16.5039 0 19.5555 1.17118 22.0474 3.51355C24.5392 5.85592 25.7851 8.72448 25.7851 12.1192C25.7851 14.4616 25.3698 16.4305 24.5392 18.0261C23.7086 19.6216 22.6974 21.1662 21.5057 22.6599C20.35 24.1536 19.1312 25.7151 17.8492 27.3446C16.5671 28.9741 15.5108 30.994 14.6802 33.4042C14.5357 33.7776 14.301 34.0747 13.976 34.2953C13.6509 34.516 13.2898 34.6263 12.8926 34.6263ZM12.8926 16.4475C14.1565 16.4475 15.2399 16.0232 16.1428 15.1745C17.0456 14.3258 17.497 13.3074 17.497 12.1192C17.497 10.9311 17.0456 9.91264 16.1428 9.06395C15.2399 8.21527 14.1565 7.79092 12.8926 7.79092C11.6286 7.79092 10.5452 8.21527 9.64234 9.06395C8.7395 9.91264 8.28808 10.9311 8.28808 12.1192C8.28808 13.3074 8.7395 14.3258 9.64234 15.1745C10.5452 16.0232 11.6286 16.4475 12.8926 16.4475Z"
        fill="#2CCE59"
      />
      <path
        d="M12.8926 16.4475C14.1565 16.4475 15.2399 16.0232 16.1428 15.1745C17.0456 14.3258 17.497 13.3074 17.497 12.1192C17.497 10.9311 17.0456 9.91264 16.1428 9.06395C15.2399 8.21527 14.1565 7.79092 12.8926 7.79092C11.6286 7.79092 10.5452 8.21527 9.64234 9.06395C8.7395 9.91264 8.28808 10.9311 8.28808 12.1192C8.28808 13.3074 8.7395 14.3258 9.64234 15.1745C10.5452 16.0232 11.6286 16.4475 12.8926 16.4475Z"
        fill="#249C37"
      />
    </svg>