<svg width="32" height="45" viewBox="0 0 32 45" fill="none" xmlns="http://www.w3.org/2000/svg">
<g style="mix-blend-mode:hard-light" filter="url(#filter0_d_169_726)">
<ellipse cx="14.2857" cy="26.9338" rx="10.2857" ry="10.0662" fill="white"/>
</g>
<path d="M13.6614 1.46134C13.6614 0.654292 13.1616 0 12.5451 0C11.9285 0 11.4287 0.654292 11.4287 1.46134V27.921C11.4287 28.7281 11.9285 29.3824 12.5451 29.3824C13.1616 29.3824 13.6614 28.7281 13.6614 27.921V16.3552L13.6617 16.3554L13.6614 1.46134Z" fill="#0C0090"/>
<path d="M26.1119 5.9084C25.9518 5.64943 25.9536 5.30135 26.1164 5.06597C26.9855 3.8166 27.8796 2.79198 28.7237 1.97441C29.4677 1.25383 28.4976 0.728354 28.28 0.618155C23.8512 -1.62582 19.4263 3.06991 15 1.64027V12.7243C19.4329 14.1549 23.8659 9.43892 28.2987 11.712C28.5151 11.8223 28.7126 11.7952 28.8078 11.6226C28.903 11.4506 28.8794 11.1553 28.7468 10.8659C27.8686 8.95564 26.9902 7.33724 26.1119 5.9084Z" fill="#0C0090"/>
<defs>
<filter id="filter0_d_169_726" x="0" y="16.8676" width="28.5713" height="28.1324" filterUnits="userSpaceOnUse" color-interpolation-filters="sRGB">
<feFlood flood-opacity="0" result="BackgroundImageFix"/>
<feColorMatrix in="SourceAlpha" type="matrix" values="0 0 0 0 0 0 0 0 0 0 0 0 0 0 0 0 0 0 127 0" result="hardAlpha"/>
<feOffset dy="4"/>
<feGaussianBlur stdDeviation="2"/>
<feComposite in2="hardAlpha" operator="out"/>
<feColorMatrix type="matrix" values="0 0 0 0 0 0 0 0 0 0 0 0 0 0 0 0 0 0 0.25 0"/>
<feBlend mode="normal" in2="BackgroundImageFix" result="effect1_dropShadow_169_726"/>
<feBlend mode="normal" in="SourceGraphic" in2="effect1_dropShadow_169_726" result="shape"/>
</filter>
</defs>
</svg>
